<svg xmlns="http://www.w3.org/2000/svg" xmlns:xlink="http://www.w3.org/1999/xlink" width="500" zoomAndPan="magnify" viewBox="0 0 375 374.999991" height="500" preserveAspectRatio="xMidYMid meet" version="1.0"><defs><clipPath id="2dd77592be"><path d="M 118 40.390625 L 375 40.390625 L 375 334 L 118 334 Z M 118 40.390625 " clip-rule="nonzero"/></clipPath><clipPath id="501511f3ba"><path d="M 0 219.984375 L 207 219.984375 L 207 375 L 0 375 Z M 0 219.984375 " clip-rule="nonzero"/></clipPath></defs><g clip-path="url(#2dd77592be)"><path fill="#17b8da" d="M 357.144531 200.976562 C 356.082031 199.25 355.304688 197.402344 354.804688 195.441406 C 354.300781 193.476562 354.101562 191.484375 354.203125 189.460938 L 354.203125 184.914062 C 354.09375 182.890625 354.289062 180.898438 354.789062 178.933594 C 355.289062 176.96875 356.074219 175.125 357.144531 173.402344 C 358.082031 171.621094 359.253906 170.007812 360.65625 168.558594 C 362.054688 167.109375 363.628906 165.882812 365.378906 164.882812 C 368.492188 163.15625 371.601562 161.257812 374.710938 159.128906 C 374.195312 155.445312 372.984375 151.875 372.121094 148.25 L 370.738281 142.835938 C 370.160156 141.054688 369.46875 139.324219 368.835938 137.542969 C 365.265625 137.542969 361.636719 137.542969 358.066406 137.542969 C 357.074219 137.539062 356.085938 137.46875 355.101562 137.332031 C 354.121094 137.199219 353.152344 137 352.195312 136.738281 C 351.238281 136.472656 350.304688 136.148438 349.390625 135.761719 C 348.476562 135.375 347.59375 134.929688 346.742188 134.425781 C 345.886719 133.925781 345.070312 133.367188 344.289062 132.753906 C 343.507812 132.144531 342.773438 131.484375 342.078125 130.773438 C 341.386719 130.066406 340.746094 129.3125 340.152344 128.519531 C 339.558594 127.722656 339.019531 126.894531 338.535156 126.027344 L 337.328125 124.070312 L 336.175781 122.171875 C 334.167969 118.597656 333.132812 114.757812 333.066406 110.660156 C 333.035156 108.636719 333.277344 106.648438 333.796875 104.691406 C 334.316406 102.738281 335.089844 100.890625 336.117188 99.148438 C 337.960938 96.039062 339.574219 92.988281 341.246094 89.765625 L 333.699219 82.167969 L 325.402344 74.625 C 322.234375 76.296875 319.183594 77.847656 316.015625 79.75 C 314.265625 80.769531 312.414062 81.535156 310.460938 82.054688 C 308.503906 82.570312 306.515625 82.820312 304.492188 82.800781 C 300.515625 82.675781 296.789062 81.640625 293.316406 79.691406 L 291.359375 78.484375 L 289.457031 77.332031 C 288.589844 76.851562 287.753906 76.3125 286.957031 75.71875 C 286.15625 75.125 285.402344 74.484375 284.691406 73.789062 C 283.976562 73.097656 283.3125 72.359375 282.699219 71.574219 C 282.085938 70.792969 281.527344 69.972656 281.023438 69.117188 C 280.519531 68.261719 280.074219 67.375 279.6875 66.457031 C 279.300781 65.542969 278.980469 64.605469 278.71875 63.644531 C 278.457031 62.6875 278.261719 61.714844 278.132812 60.730469 C 278 59.742188 277.9375 58.753906 277.9375 57.761719 C 277.9375 54.191406 277.9375 50.621094 277.9375 46.996094 L 272.292969 45.152344 L 266.878906 43.714844 C 263.25 42.910156 259.675781 41.644531 255.933594 41.183594 C 253.976562 44.234375 252.132812 47.339844 250.171875 50.449219 C 249.203125 52.144531 248.019531 53.671875 246.617188 55.03125 C 245.21875 56.390625 243.65625 57.53125 241.933594 58.449219 C 240.21875 59.535156 238.375 60.332031 236.410156 60.84375 C 234.441406 61.355469 232.445312 61.554688 230.414062 61.445312 L 225.921875 61.445312 C 223.894531 61.554688 221.894531 61.355469 219.929688 60.84375 C 217.960938 60.332031 216.121094 59.535156 214.402344 58.449219 C 212.617188 57.511719 211.003906 56.339844 209.550781 54.941406 C 208.101562 53.542969 206.878906 51.96875 205.875 50.21875 C 204.148438 47.109375 202.246094 44.003906 200.113281 40.953125 C 196.371094 41.414062 192.800781 42.679688 189.171875 43.484375 L 184.332031 45.152344 L 179.089844 46.9375 C 179.089844 50.566406 179.089844 54.132812 179.089844 57.703125 C 179.089844 58.695312 179.027344 59.6875 178.894531 60.671875 C 178.765625 61.65625 178.570312 62.628906 178.308594 63.589844 C 178.046875 64.546875 177.726562 65.484375 177.339844 66.402344 C 176.953125 67.316406 176.507812 68.203125 176.003906 69.058594 C 175.5 69.917969 174.941406 70.738281 174.328125 71.519531 C 173.714844 72.300781 173.050781 73.039062 172.335938 73.730469 C 171.625 74.425781 170.871094 75.070312 170.070312 75.660156 C 169.273438 76.253906 168.4375 76.792969 167.570312 77.273438 L 165.667969 78.425781 L 163.710938 79.632812 C 160.238281 81.582031 156.515625 82.617188 152.535156 82.742188 C 150.511719 82.761719 148.523438 82.515625 146.566406 81.996094 C 144.613281 81.476562 142.761719 80.710938 141.015625 79.691406 C 137.84375 77.792969 134.792969 76.238281 131.625 74.566406 L 122.984375 82.167969 L 118.261719 87.230469 L 228.339844 87.230469 C 230.007812 87.191406 231.671875 87.195312 233.335938 87.238281 C 235 87.28125 236.664062 87.363281 238.324219 87.488281 C 239.984375 87.617188 241.640625 87.78125 243.292969 87.992188 C 244.945312 88.199219 246.589844 88.449219 248.230469 88.738281 C 249.871094 89.03125 251.503906 89.359375 253.125 89.734375 C 254.75 90.105469 256.363281 90.515625 257.964844 90.96875 C 259.566406 91.421875 261.160156 91.910156 262.738281 92.441406 C 264.316406 92.972656 265.878906 93.542969 267.429688 94.152344 C 268.980469 94.761719 270.511719 95.410156 272.03125 96.09375 C 273.546875 96.78125 275.046875 97.503906 276.527344 98.265625 C 278.011719 99.023438 279.472656 99.820312 280.914062 100.652344 C 282.355469 101.488281 283.773438 102.355469 285.171875 103.257812 C 286.570312 104.164062 287.945312 105.101562 289.300781 106.074219 C 290.652344 107.042969 291.976562 108.050781 293.277344 109.089844 C 294.578125 110.125 295.855469 111.195312 297.101562 112.296875 C 298.351562 113.402344 299.570312 114.53125 300.761719 115.695312 C 301.953125 116.859375 303.117188 118.050781 304.25 119.269531 C 305.378906 120.488281 306.480469 121.738281 307.550781 123.011719 C 308.621094 124.289062 309.660156 125.589844 310.664062 126.917969 C 311.667969 128.242188 312.640625 129.59375 313.578125 130.96875 C 314.515625 132.34375 315.417969 133.742188 316.285156 135.164062 C 317.15625 136.585938 317.988281 138.023438 318.78125 139.488281 C 319.578125 140.949219 320.335938 142.429688 321.058594 143.929688 C 321.78125 145.429688 322.464844 146.945312 323.113281 148.480469 C 323.757812 150.011719 324.367188 151.5625 324.9375 153.125 C 325.507812 154.6875 326.035156 156.265625 326.527344 157.855469 C 327.015625 159.445312 327.46875 161.046875 327.878906 162.660156 C 328.289062 164.273438 328.660156 165.894531 328.988281 167.527344 C 329.320312 169.160156 329.609375 170.796875 329.855469 172.441406 C 330.105469 174.089844 330.3125 175.738281 330.476562 177.394531 C 330.640625 179.050781 330.765625 180.710938 330.847656 182.371094 C 330.933594 184.035156 330.972656 185.699219 330.972656 187.363281 C 330.972656 189.027344 330.933594 190.6875 330.847656 192.351562 C 330.765625 194.011719 330.640625 195.671875 330.476562 197.328125 C 330.3125 198.984375 330.105469 200.636719 329.855469 202.28125 C 329.609375 203.925781 329.320312 205.566406 328.988281 207.195312 C 328.660156 208.828125 328.289062 210.449219 327.878906 212.0625 C 327.46875 213.675781 327.015625 215.277344 326.527344 216.867188 C 326.035156 218.457031 325.507812 220.035156 324.9375 221.597656 C 324.367188 223.164062 323.757812 224.710938 323.113281 226.246094 C 322.464844 227.777344 321.78125 229.296875 321.058594 230.792969 C 320.335938 232.292969 319.578125 233.773438 318.78125 235.238281 C 317.988281 236.699219 317.15625 238.140625 316.285156 239.558594 C 315.417969 240.980469 314.515625 242.378906 313.578125 243.753906 C 312.640625 245.128906 311.667969 246.480469 310.664062 247.808594 C 309.660156 249.132812 308.621094 250.433594 307.550781 251.710938 C 306.480469 252.984375 305.378906 254.234375 304.25 255.453125 C 303.117188 256.675781 301.953125 257.867188 300.761719 259.027344 C 299.570312 260.191406 298.351562 261.324219 297.101562 262.425781 C 295.855469 263.527344 294.578125 264.597656 293.277344 265.636719 C 291.976562 266.671875 290.652344 267.679688 289.300781 268.652344 C 287.945312 269.625 286.570312 270.5625 285.171875 271.464844 C 283.777344 272.367188 282.355469 273.238281 280.914062 274.070312 C 279.472656 274.902344 278.011719 275.699219 276.527344 276.460938 C 275.046875 277.21875 273.546875 277.941406 272.03125 278.628906 C 270.511719 279.3125 268.980469 279.960938 267.429688 280.570312 C 265.878906 281.179688 264.316406 281.75 262.738281 282.28125 C 261.160156 282.8125 259.566406 283.304688 257.964844 283.753906 C 256.363281 284.207031 254.75 284.621094 253.125 284.992188 C 251.503906 285.363281 249.871094 285.695312 248.230469 285.984375 C 246.589844 286.273438 244.945312 286.523438 243.292969 286.730469 C 241.640625 286.941406 239.984375 287.109375 238.324219 287.234375 C 236.664062 287.359375 235 287.445312 233.335938 287.488281 C 231.671875 287.53125 230.007812 287.53125 228.339844 287.492188 L 157.71875 287.492188 C 163.074219 289.5625 177.132812 294.917969 178.859375 317.019531 C 179.148438 320.589844 178.859375 324.160156 178.859375 327.785156 C 180.644531 328.417969 182.375 329.109375 184.160156 329.683594 L 189.574219 331.066406 C 193.175781 332.113281 196.824219 332.957031 200.519531 333.597656 C 202.417969 330.546875 204.320312 327.441406 206.277344 324.332031 C 207.28125 322.582031 208.507812 321.007812 209.957031 319.609375 C 211.40625 318.210938 213.019531 317.039062 214.804688 316.101562 C 216.527344 315.03125 218.371094 314.238281 220.335938 313.730469 C 222.300781 313.21875 224.296875 313.011719 226.324219 313.105469 L 230.816406 313.105469 C 232.84375 313.011719 234.839844 313.21875 236.804688 313.730469 C 238.769531 314.238281 240.613281 315.03125 242.339844 316.101562 C 244.117188 317.035156 245.730469 318.203125 247.167969 319.601562 C 248.609375 321.003906 249.824219 322.578125 250.804688 324.332031 C 252.59375 327.441406 254.433594 330.546875 256.566406 333.597656 C 260.261719 332.957031 263.910156 332.113281 267.511719 331.066406 L 272.925781 329.683594 C 274.710938 329.109375 276.441406 328.417969 278.226562 327.785156 C 278.226562 324.160156 278.226562 320.589844 278.226562 317.019531 C 278.230469 316.027344 278.296875 315.039062 278.429688 314.054688 C 278.566406 313.070312 278.761719 312.101562 279.027344 311.144531 C 279.289062 310.183594 279.613281 309.25 280 308.332031 C 280.386719 307.417969 280.832031 306.535156 281.335938 305.675781 C 281.839844 304.820312 282.398438 304.003906 283.011719 303.21875 C 283.621094 302.4375 284.285156 301.699219 284.992188 301.003906 C 285.703125 300.308594 286.457031 299.664062 287.253906 299.070312 C 288.046875 298.476562 288.878906 297.933594 289.746094 297.449219 L 291.648438 296.296875 L 293.605469 295.089844 C 297.085938 293.167969 300.808594 292.132812 304.78125 291.980469 C 306.804688 291.960938 308.792969 292.210938 310.75 292.726562 C 312.703125 293.246094 314.554688 294.011719 316.300781 295.03125 C 319.46875 296.933594 322.523438 298.542969 325.691406 300.210938 L 333.984375 292.671875 L 341.53125 284.382812 C 339.863281 281.160156 338.25 278.167969 336.40625 275 C 335.375 273.261719 334.597656 271.410156 334.078125 269.457031 C 333.5625 267.5 333.320312 265.511719 333.351562 263.488281 C 333.476562 259.511719 334.511719 255.789062 336.464844 252.320312 L 337.613281 250.363281 L 338.824219 248.40625 C 339.800781 246.671875 340.984375 245.09375 342.375 243.671875 C 343.769531 242.25 345.324219 241.035156 347.039062 240.023438 C 348.753906 239.011719 350.570312 238.242188 352.488281 237.710938 C 354.40625 237.179688 356.363281 236.910156 358.351562 236.894531 C 361.925781 236.894531 365.554688 236.894531 369.125 236.894531 C 369.757812 235.167969 370.449219 233.441406 371.023438 231.65625 L 372.40625 226.246094 C 373.273438 222.5625 374.480469 218.992188 375 215.308594 C 371.890625 213.351562 368.777344 211.507812 365.667969 209.550781 C 363.859375 208.566406 362.230469 207.347656 360.777344 205.886719 C 359.328125 204.425781 358.117188 202.789062 357.144531 200.976562 Z M 357.144531 200.976562 " fill-opacity="1" fill-rule="nonzero"/></g><path fill="#00429f" d="M 302.765625 207.308594 C 302.738281 206.902344 302.738281 206.5 302.765625 206.097656 L 303.285156 203.851562 C 303.285156 203.449219 303.285156 203.046875 303.285156 202.644531 C 303.285156 202.242188 303.6875 200.6875 303.859375 199.652344 C 303.832031 199.515625 303.832031 199.382812 303.859375 199.25 C 303.859375 198.097656 303.859375 196.945312 304.261719 195.792969 C 304.289062 195.429688 304.289062 195.066406 304.261719 194.699219 C 304.261719 193.835938 304.261719 192.972656 304.261719 192.109375 C 304.5625 191.648438 304.90625 191.226562 305.300781 190.84375 C 305.300781 189.691406 305.300781 188.484375 305.300781 187.277344 C 305.300781 186.066406 305.300781 184.859375 305.300781 183.648438 C 305.269531 183.285156 305.269531 182.921875 305.300781 182.554688 C 305.300781 181.691406 305.300781 180.828125 305.300781 179.964844 C 305.324219 179.601562 305.324219 179.234375 305.300781 178.871094 C 305.300781 177.71875 305.300781 176.570312 304.894531 175.476562 C 304.867188 175.320312 304.867188 175.167969 304.894531 175.015625 C 304.894531 174.035156 304.550781 173 304.320312 172.019531 C 304.089844 171.042969 304.320312 171.214844 304.320312 170.8125 L 303.800781 168.566406 C 303.773438 168.164062 303.773438 167.761719 303.800781 167.359375 C 303.515625 166.324219 303.226562 165.285156 302.878906 164.25 C 301.957031 161.242188 300.84375 158.308594 299.539062 155.445312 C 296.570312 149.507812 292.902344 144.039062 288.535156 139.039062 L 286.867188 136.964844 C 285.207031 134.949219 283.441406 133.03125 281.566406 131.210938 L 281.046875 130.691406 L 279.320312 129.136719 L 279.03125 129.136719 C 277.9375 128.214844 276.84375 127.238281 275.691406 126.375 L 274.886719 125.742188 L 273.273438 124.53125 L 272.234375 123.785156 L 270.621094 122.75 C 270.203125 122.425781 269.761719 122.140625 269.296875 121.882812 L 266.878906 120.386719 L 264.976562 119.292969 L 263.535156 118.546875 L 261.925781 117.683594 L 260.597656 117.050781 L 257.949219 116.011719 L 256.855469 115.554688 L 254.78125 114.746094 L 253.457031 114.054688 L 251.152344 113.308594 L 250.230469 112.960938 C 249.136719 112.675781 248.097656 112.328125 247.003906 112.097656 L 246.023438 111.8125 L 243.605469 111.292969 L 242.453125 111.292969 C 241.503906 111.058594 240.542969 110.886719 239.574219 110.773438 L 238.996094 110.773438 L 235.542969 110.316406 L 0 110.316406 L 15.898438 128.675781 C 17.554688 130.820312 19.324219 132.863281 21.210938 134.808594 C 23.101562 136.75 25.09375 138.578125 27.191406 140.292969 C 29.289062 142.007812 31.476562 143.597656 33.753906 145.0625 C 36.03125 146.527344 38.386719 147.859375 40.820312 149.054688 C 43.25 150.25 45.742188 151.304688 48.292969 152.214844 C 50.84375 153.125 53.441406 153.890625 56.078125 154.503906 C 58.71875 155.121094 61.382812 155.582031 64.074219 155.894531 C 66.765625 156.207031 69.46875 156.363281 72.175781 156.363281 L 218.261719 156.363281 C 219.023438 156.359375 219.738281 156.542969 220.402344 156.914062 C 221.070312 157.28125 221.605469 157.789062 222.003906 158.4375 C 222.097656 158.605469 222.183594 158.78125 222.253906 158.960938 C 222.324219 159.140625 222.386719 159.324219 222.433594 159.511719 C 222.480469 159.699219 222.515625 159.886719 222.539062 160.078125 C 222.5625 160.273438 222.574219 160.464844 222.574219 160.65625 C 222.574219 160.851562 222.558594 161.042969 222.53125 161.234375 C 222.507812 161.425781 222.46875 161.617188 222.417969 161.804688 C 222.367188 161.988281 222.304688 162.171875 222.230469 162.351562 C 222.152344 162.53125 222.070312 162.703125 221.972656 162.871094 C 221.875 163.039062 221.769531 163.199219 221.648438 163.351562 C 221.53125 163.503906 221.40625 163.652344 221.269531 163.789062 C 221.132812 163.925781 220.988281 164.054688 220.835938 164.171875 C 220.683594 164.289062 220.523438 164.398438 220.355469 164.496094 C 220.1875 164.59375 220.015625 164.683594 219.835938 164.757812 C 219.660156 164.832031 219.476562 164.898438 219.289062 164.949219 C 219.105469 165 218.914062 165.039062 218.722656 165.070312 C 218.53125 165.097656 218.339844 165.109375 218.144531 165.113281 L 64.113281 165.113281 L 78.285156 183.476562 C 79.9375 185.621094 81.707031 187.667969 83.59375 189.609375 C 85.480469 191.554688 87.472656 193.382812 89.570312 195.101562 C 91.664062 196.816406 93.855469 198.40625 96.132812 199.871094 C 98.410156 201.339844 100.765625 202.667969 103.199219 203.863281 C 105.628906 205.0625 108.121094 206.113281 110.671875 207.027344 C 113.226562 207.9375 115.820312 208.699219 118.460938 209.3125 C 121.101562 209.929688 123.765625 210.390625 126.457031 210.699219 C 129.152344 211.007812 131.851562 211.164062 134.5625 211.164062 L 241.246094 211.164062 C 241.4375 211.164062 241.628906 211.175781 241.820312 211.203125 C 242.011719 211.226562 242.203125 211.265625 242.386719 211.3125 C 242.574219 211.363281 242.757812 211.425781 242.9375 211.5 C 243.113281 211.570312 243.289062 211.65625 243.457031 211.753906 C 243.621094 211.847656 243.785156 211.957031 243.9375 212.074219 C 244.089844 212.191406 244.234375 212.316406 244.371094 212.453125 C 244.511719 212.589844 244.636719 212.734375 244.753906 212.886719 C 244.875 213.039062 244.980469 213.199219 245.078125 213.363281 C 245.175781 213.53125 245.261719 213.703125 245.335938 213.882812 C 245.410156 214.058594 245.472656 214.242188 245.523438 214.429688 C 245.574219 214.613281 245.613281 214.804688 245.640625 214.996094 C 245.667969 215.1875 245.679688 215.378906 245.679688 215.570312 C 245.683594 215.765625 245.671875 215.957031 245.648438 216.148438 C 245.621094 216.339844 245.585938 216.527344 245.539062 216.714844 C 245.488281 216.902344 245.429688 217.085938 245.355469 217.261719 C 245.28125 217.441406 245.199219 217.617188 245.105469 217.785156 C 244.691406 218.414062 244.152344 218.910156 243.488281 219.269531 C 242.824219 219.625 242.113281 219.804688 241.359375 219.796875 L 126.726562 219.796875 L 140.898438 238.21875 C 142.550781 240.363281 144.320312 242.410156 146.207031 244.351562 C 148.097656 246.296875 150.085938 248.125 152.183594 249.84375 C 154.28125 251.558594 156.46875 253.148438 158.746094 254.613281 C 161.027344 256.078125 163.382812 257.410156 165.8125 258.605469 C 168.246094 259.804688 170.738281 260.855469 173.289062 261.769531 C 175.839844 262.679688 178.4375 263.441406 181.074219 264.054688 C 183.714844 264.671875 186.382812 265.132812 189.074219 265.441406 C 191.765625 265.75 194.46875 265.90625 197.175781 265.90625 L 235.945312 265.90625 C 237.105469 265.816406 238.257812 265.664062 239.402344 265.445312 L 239.976562 265.445312 L 242.855469 264.925781 L 244.007812 264.925781 L 246.429688 264.351562 L 247.40625 264.351562 L 250.632812 263.429688 L 251.554688 263.144531 L 253.859375 262.335938 L 255.070312 261.875 L 257.144531 261.070312 L 258.238281 260.609375 L 261.058594 259.34375 L 262.382812 258.710938 L 263.996094 257.90625 L 265.4375 257.097656 L 266.933594 256.234375 L 269.355469 254.796875 L 270.679688 253.933594 L 272.292969 252.839844 L 273.328125 252.089844 L 274.941406 250.9375 L 275.75 250.304688 L 279.089844 247.484375 L 279.378906 247.484375 L 281.105469 245.929688 L 281.625 245.414062 C 283.46875 243.628906 285.253906 241.730469 286.925781 239.65625 L 288.59375 237.640625 C 292.609375 232.59375 295.929688 227.125 298.558594 221.238281 C 299.851562 218.390625 300.96875 215.472656 301.902344 212.488281 C 302.1875 209.4375 302.476562 208.113281 302.765625 207.308594 Z M 302.765625 207.308594 " fill-opacity="1" fill-rule="nonzero"/><g clip-path="url(#501511f3ba)"><path fill="#f15a24" d="M 111.40625 300.507812 C 98.292969 307.25 86.234375 314.75 76.460938 322.652344 C 73.359375 325.160156 70.488281 327.710938 67.882812 330.289062 C 70.953125 331.195312 74.199219 331.683594 77.5625 331.675781 C 95.410156 331.652344 109.945312 317.988281 111.40625 300.507812 Z M 205.964844 270.007812 C 190.953125 271.597656 172.632812 276.03125 153.933594 282.464844 C 149.121094 284.121094 144.285156 285.910156 139.472656 287.816406 L 149.558594 289.632812 C 152.710938 290.203125 155.007812 292.953125 155.007812 296.164062 L 155.007812 299.058594 C 155.007812 302.269531 152.710938 305.019531 149.558594 305.585938 L 134.308594 308.332031 C 131.847656 308.777344 129.84375 310.570312 129.132812 312.972656 C 128.0625 316.582031 126.625 320.039062 124.863281 323.289062 C 123.667969 325.496094 123.8125 328.1875 125.242188 330.25 L 134.085938 342.996094 C 135.917969 345.632812 135.601562 349.203125 133.332031 351.472656 L 131.289062 353.523438 C 129.023438 355.792969 125.457031 356.109375 122.824219 354.277344 L 110.101562 345.414062 C 108.042969 343.980469 105.359375 343.839844 103.152344 345.035156 C 99.90625 346.800781 96.457031 348.238281 92.851562 349.3125 C 90.457031 350.023438 88.664062 352.03125 88.222656 354.496094 L 85.480469 369.773438 C 84.914062 372.933594 82.167969 375.234375 78.960938 375.234375 L 76.074219 375.234375 C 72.867188 375.234375 70.121094 372.933594 69.554688 369.773438 L 66.8125 354.496094 C 66.371094 352.03125 64.578125 350.023438 62.183594 349.3125 C 58.578125 348.238281 55.128906 346.800781 51.882812 345.035156 C 49.679688 343.839844 46.992188 343.980469 44.933594 345.414062 L 32.210938 354.277344 C 31.066406 355.074219 29.746094 355.464844 28.429688 355.464844 C 26.722656 355.464844 25.027344 354.804688 23.746094 353.523438 L 21.703125 351.472656 C 19.433594 349.203125 19.117188 345.632812 20.945312 342.996094 L 29.792969 330.25 C 30.316406 329.667969 30.859375 329.089844 31.417969 328.515625 C 31.464844 328.214844 31.660156 327.929688 32.03125 327.664062 C 33.160156 326.851562 40.128906 319.792969 48.328125 315.097656 C 54.519531 311.554688 59.570312 307.960938 68.742188 303.34375 C 85.59375 294.863281 107.972656 286.972656 130.507812 279.601562 C 137.058594 277.460938 143.398438 276.261719 150.117188 274.546875 C 168.773438 269.792969 187.960938 267.636719 205.910156 268.359375 C 206.933594 268.402344 206.980469 269.902344 205.964844 270.007812 Z M 31.140625 302.957031 C 23.003906 306.230469 14.109375 307.140625 5.476562 305.585938 C 2.324219 305.019531 0.0273438 302.269531 0.0273438 299.058594 L 0.0273438 296.164062 C 0.0273438 292.953125 2.324219 290.203125 5.476562 289.632812 L 20.726562 286.886719 C 23.1875 286.445312 25.191406 284.652344 25.902344 282.25 C 26.972656 278.636719 28.410156 275.183594 30.171875 271.929688 C 31.367188 269.722656 31.222656 267.03125 29.792969 264.972656 L 20.945312 252.226562 C 20.152344 251.078125 19.761719 249.753906 19.761719 248.441406 C 19.761719 246.730469 20.421875 245.03125 21.703125 243.746094 L 23.746094 241.699219 C 26.011719 239.429688 29.578125 239.109375 32.210938 240.941406 L 44.933594 249.804688 C 46.992188 251.238281 49.679688 251.382812 51.882812 250.183594 C 55.128906 248.417969 58.578125 246.980469 62.183594 245.90625 C 64.578125 245.195312 66.371094 243.1875 66.8125 240.722656 L 69.554688 225.449219 C 70.121094 222.289062 72.867188 219.988281 76.074219 219.988281 L 78.960938 219.988281 C 82.167969 219.988281 84.914062 222.289062 85.480469 225.449219 L 88.222656 240.722656 C 88.664062 243.1875 90.457031 245.195312 92.851562 245.90625 C 96.457031 246.980469 99.90625 248.417969 103.152344 250.183594 C 105.359375 251.382812 108.042969 251.238281 110.101562 249.804688 L 122.824219 240.941406 C 123.96875 240.148438 125.292969 239.757812 126.605469 239.757812 C 128.3125 239.757812 130.007812 240.414062 131.289062 241.699219 L 133.332031 243.746094 C 135.601562 246.019531 135.917969 249.589844 134.085938 252.226562 L 125.242188 264.972656 C 123.8125 267.03125 123.667969 269.722656 124.863281 271.929688 C 125.585938 273.265625 126.253906 274.632812 126.863281 276.035156 C 120 277 113.15625 278.222656 106.414062 279.636719 C 100.410156 269.976562 89.710938 263.542969 77.515625 263.542969 C 58.734375 263.542969 43.507812 278.796875 43.507812 297.609375 L 43.507812 297.617188 C 43.507812 297.945312 43.304688 298.242188 42.996094 298.355469 C 38.777344 299.929688 34.8125 301.476562 31.140625 302.957031 " fill-opacity="1" fill-rule="nonzero"/></g></svg>